<svg width="24" height="24" viewBox="0 0 24 24" fill="none" xmlns="http://www.w3.org/2000/svg">
<rect width="24" height="24" fill="#404343"/>
<g clip-path="url(#clip0_0_1)">
<rect width="393" height="852" transform="translate(-33 -67)" fill="#DEDECE"/>
<rect x="-14" y="-4" width="303" height="33" rx="10" fill="#DEDECE"/>
<rect x="-13.5" y="-3.5" width="302" height="32" rx="9.5" stroke="#918A89" stroke-opacity="0.5"/>
<path d="M14.25 20.25H20.25C20.9914 20.25 21.6214 20.0828 22.1445 19.7914L14.25 15.0821V20.25ZM23.8725 17.3287C23.958 16.9474 24.0015 16.5435 24.0015 16.1246V14.2496H18.7102L23.871 17.3287M0.131233 6.65963C0.0423599 7.0586 -0.00166318 7.46625 -1.65007e-05 7.875V9.75H5.31148L0.131233 6.65963ZM9.74998 3.75H3.74998C3.01386 3.75 2.38798 3.915 1.86711 4.20225L9.74998 8.90475V3.75ZM1.89111 19.8097C2.40711 20.0888 3.02473 20.25 3.74998 20.25H9.74998V15.1215L1.89111 19.8097ZM-1.65007e-05 14.25V16.125C-1.65007e-05 16.5566 0.0457335 16.9725 0.136109 17.3636L5.35573 14.25H-1.65007e-05ZM22.1681 4.22063C21.6409 3.92138 21.0022 3.75 20.25 3.75H14.25V8.94413L22.1681 4.22063ZM24 9.75V7.875C24 7.46475 23.9576 7.06913 23.8755 6.69488L18.7545 9.75H24Z" fill="#2E3192"/>
<path d="M18.7545 9.75L23.8755 6.69488C23.6407 5.62088 23.0693 4.73175 22.1681 4.22063L14.25 8.94413V3.75H13.5V10.5H24V9.75H18.7545ZM0 13.5V14.25H5.35575L0.136125 17.3636C0.384 18.4343 0.97275 19.3133 1.89113 19.8097L9.75 15.1215V20.25H10.5V13.5H0ZM24 13.5H13.5V20.25H14.25V15.0821L22.1445 19.7917C23.0524 19.2863 23.631 18.402 23.871 17.3295L18.7103 14.25H24V13.5ZM9.75 3.75V8.90475L1.86713 4.20225C0.955875 4.70475 0.3735 5.5875 0.130875 6.65963L5.3115 9.75H0V10.5H10.5V3.75H9.75Z" fill="#E6E7E8"/>
<path d="M13.5 10.5V3.75H10.5V10.5H0V13.5H10.5V20.25H13.5V13.5H24V10.5H13.5Z" fill="#BE1E2D"/>
<path d="M8.22676 9.74986L0.708012 5.26148C0.546387 5.50148 0.416637 5.76548 0.309387 6.04673L6.51451 9.74986H8.22564M23.6588 18.0336L17.3539 14.2499H15.6079L23.2253 18.832C23.4019 18.5851 23.5475 18.3175 23.6588 18.0351M22.7696 4.64648L14.2384 9.74986L15.9705 9.75098L23.3321 5.34361C23.1679 5.04473 22.9946 4.85198 22.7696 4.64648ZM0.679887 18.703C0.848574 18.9599 1.05158 19.1925 1.28326 19.3945L9.77364 14.2499H8.06251L0.679887 18.703Z" fill="#BE1E2D"/>
</g>
<defs>
<clipPath id="clip0_0_1">
<rect width="393" height="852" fill="white" transform="translate(-33 -67)"/>
</clipPath>
</defs>
</svg>
