<svg width="11" height="13" xmlns="http://www.w3.org/2000/svg" fill="none">
 <defs>
  <radialGradient gradientTransform="translate(4.85769 12.9697) rotate(-179.751) scale(7.57328 12.4262)" gradientUnits="userSpaceOnUse" r="1" cy="0" cx="0" id="paint0_radial_29_1251">
   <stop stop-color="#FF9800" offset="0.314"/>
   <stop stop-color="#FF6D00" offset="0.662"/>
   <stop stop-color="#F44336" offset="0.972"/>
  </radialGradient>
  <radialGradient gradientTransform="matrix(-0.08003219962120056,7.923575401306152,-5.963085651397705,-0.06023025140166283,5.282979965209961,5.866371154785156)" gradientUnits="userSpaceOnUse" r="1" cy="0" cx="0" id="paint1_radial_29_1251">
   <stop stop-color="#FFF176" offset="0.214"/>
   <stop stop-color="#FFF27D" offset="0.328"/>
   <stop stop-color="#FFF48F" offset="0.487"/>
   <stop stop-color="#FFF7AD" offset="0.672"/>
   <stop stop-color="#FFF9C4" offset="0.793"/>
   <stop stop-opacity="0.804" stop-color="#FFF8BD" offset="0.822"/>
   <stop stop-opacity="0.529" stop-color="#FFF6AB" offset="0.863"/>
   <stop stop-opacity="0.209" stop-color="#FFF38D" offset="0.91"/>
   <stop stop-opacity="0" stop-color="#FFF176" offset="0.941"/>
  </radialGradient>
 </defs>
 <g>
  <title>Layer 1</title>
  <path id="svg_1" fill="url(#paint0_radial_29_1251)" d="m1.99782,4.00342c-0.06116,0.65232 -0.10407,1.80675 0.2811,2.29813c0,0 -0.18132,-1.26815 1.44411,-2.85925c0.65446,-0.64051 0.80574,-1.5117 0.57721,-2.16509c-0.12982,-0.37015 -0.36693,-0.67592 -0.57292,-0.88943c-0.12017,-0.12552 -0.0279,-0.33259 0.14698,-0.32508c1.05787,0.04721 2.77235,0.34118 3.50084,2.16938c0.31972,0.80252 0.34333,1.63187 0.19098,2.47516c-0.09656,0.53859 -0.43989,1.73593 0.34332,1.88292c0.55898,0.10514 0.82934,-0.33903 0.95058,-0.65875c0.05043,-0.13304 0.22531,-0.1663 0.31972,-0.06009c0.94416,1.07397 1.02466,2.3389 0.82936,3.42789c-0.37767,2.10499 -2.5095,3.63709 -4.62739,3.63709c-2.64574,0 -4.75183,-1.5138 -5.29793,-4.25401c-0.21994,-1.10614 -0.10836,-3.29484 1.59754,-4.8398c0.1266,-0.11587 0.33367,-0.01288 0.3165,0.16093z"/>
  <path id="svg_2" fill="url(#paint1_radial_29_1251)" d="m6.34837,8.37281c-0.97526,-1.25528 -0.53859,-2.68759 -0.29934,-3.25836c0.03219,-0.07511 -0.05364,-0.14592 -0.12123,-0.09978c-0.4195,0.28539 -1.27889,0.95701 -1.67908,1.90223c-0.54181,1.27781 -0.50318,1.90331 -0.18239,2.6672c0.19312,0.46027 -0.03111,0.55791 -0.14377,0.57507c-0.10943,0.01717 -0.21028,-0.05579 -0.29075,-0.13196c-0.23149,-0.22224 -0.39645,-0.50461 -0.47636,-0.8154c-0.01717,-0.06652 -0.10407,-0.08476 -0.14377,-0.03004c-0.30041,0.41521 -0.45598,1.08147 -0.46349,1.55249c-0.0236,1.4559 1.17911,2.6361 2.63395,2.6361c1.83357,0 3.16931,-2.0278 2.11574,-3.72295c-0.30578,-0.49353 -0.59331,-0.81647 -0.94951,-1.2746z"/>
 </g>
</svg>