<svg width="13" height="13" xmlns="http://www.w3.org/2000/svg" fill="none">

 <g>
  <title>Layer 1</title>
  <path id="svg_1" fill="#D32A2A" d="m6.49999,1c0.20313,0 0.40355,0.01084 0.60125,0.03304c0.07071,0.00783 0.13918,0.0295 0.20151,0.06379c0.06233,0.03429 0.1173,0.08051 0.16176,0.13604c0.04447,0.05553 0.07756,0.11928 0.09738,0.18759c0.01983,0.06832 0.02601,0.13988 0.01819,0.21058c-0.00783,0.07071 -0.0295,0.13918 -0.06379,0.20151c-0.03429,0.06233 -0.08051,0.1173 -0.13604,0.16176c-0.05553,0.04446 -0.11928,0.07755 -0.18759,0.09738c-0.06832,0.01983 -0.13988,0.02601 -0.21058,0.01819c-0.89264,-0.09986 -1.79426,0.08013 -2.58014,0.51508c-0.78587,0.43495 -1.41717,1.10336 -1.80657,1.91277c-0.3894,0.80942 -0.51765,1.71983 -0.36702,2.60532c0.15063,0.88549 0.57271,1.70229 1.20784,2.33743c0.63513,0.63517 1.45193,1.05717 2.33742,1.20787c0.88549,0.1506 1.79591,0.0223 2.60532,-0.3671c0.80941,-0.3894 1.47782,-1.02065 1.91277,-1.80653c0.435,-0.78588 0.6149,-1.68749 0.5151,-2.58014c-0.0078,-0.0707 -0.0017,-0.14226 0.0182,-0.21057c0.0198,-0.06832 0.0529,-0.13207 0.0974,-0.18759c0.0898,-0.11215 0.2204,-0.18403 0.3632,-0.19984c0.1428,-0.0158 0.286,0.02577 0.3982,0.11557c0.0555,0.04447 0.1017,0.09943 0.136,0.16176c0.0343,0.06233 0.056,0.1308 0.0638,0.20151c0.0217,0.19771 0.0331,0.39812 0.0331,0.60125c0,2.99162 -2.42508,5.41668 -5.41671,5.41668c-2.99162,0 -5.41666,-2.42506 -5.41666,-5.41668c0,-2.99163 2.42504,-5.41667 5.41666,-5.41667zm-0.01733,3.18338c0.0357,0.13906 0.01473,0.2866 -0.0583,0.4102c-0.07302,0.12361 -0.19213,0.21317 -0.33116,0.249c-0.38194,0.10006 -0.71444,0.33566 -0.93544,0.66285c-0.22099,0.32718 -0.3154,0.7236 -0.26559,1.11528c0.0498,0.39168 0.24041,0.75186 0.53627,1.01332c0.29585,0.26147 0.67672,0.40636 1.07155,0.40764c0.36033,-0.00004 0.71044,-0.11975 0.99535,-0.34034c0.28491,-0.2206 0.48848,-0.52957 0.57874,-0.87841c0.03839,-0.13631 0.12864,-0.25216 0.25141,-0.32274c0.12277,-0.07058 0.2683,-0.09027 0.40542,-0.05486c0.13711,0.03541 0.2549,0.12311 0.32814,0.24431c0.07324,0.1212 0.09611,0.26627 0.06369,0.40412c-0.16616,0.63696 -0.55854,1.19165 -1.10383,1.56042c-0.54528,0.36878 -1.20618,0.52642 -1.85921,0.44348c-0.65304,-0.08294 -1.25354,-0.40079 -1.68933,-0.89417c-0.43578,-0.49338 -0.67705,-1.12853 -0.67871,-1.78681c0.00009,-0.60045 0.19965,-1.18386 0.56731,-1.65859c0.36766,-0.47472 0.8826,-0.81387 1.46394,-0.96416c0.06889,-0.01776 0.14061,-0.02177 0.21105,-0.01181c0.07044,0.00997 0.13823,0.03371 0.1995,0.06988c0.06126,0.03616 0.11481,0.08404 0.15756,0.1409c0.04276,0.05686 0.0739,0.12159 0.09164,0.19049zm3.54034,-3.11459c0.0989,0.041 0.1834,0.11036 0.2429,0.19934c0.0594,0.08898 0.0912,0.19359 0.0913,0.30062l0,0.99125l0.9907,0c0.1071,0.00002 0.2118,0.03181 0.3009,0.09133c0.089,0.05952 0.1584,0.1441 0.1994,0.24307c0.041,0.09896 0.0518,0.20785 0.0309,0.31291c-0.0209,0.10506 -0.0725,0.20156 -0.1482,0.27732l-1.91591,1.91371c-0.10155,0.10158 -0.23931,0.15867 -0.38295,0.1587l-1.30705,0l-0.99016,0.99071c-0.10164,0.10164 -0.23949,0.15874 -0.38323,0.15874c-0.14374,0 -0.28159,-0.0571 -0.38323,-0.15874c-0.10164,-0.10164 -0.15874,-0.23949 -0.15874,-0.38323c0,-0.14374 0.0571,-0.28159 0.15874,-0.38323l0.99071,-0.98962l0,-1.30758c0.00003,-0.14365 0.05712,-0.2814 0.15871,-0.38296l1.91479,-1.91534c0.07575,-0.07579 0.17228,-0.12742 0.27737,-0.14834c0.1051,-0.02092 0.21404,-0.0102 0.31305,0.0308m-0.74913,1.80754l-0.83146,0.83254l0,0.76592l0.76592,0l0.83197,-0.83146l-0.22476,0c-0.14366,0 -0.28144,-0.05706 -0.38302,-0.15865c-0.10158,-0.10158 -0.15865,-0.23935 -0.15865,-0.38301l0,-0.22534z"/>
 </g>
</svg>