<svg width="14" height="18" viewBox="0 0 14 18" fill="none" xmlns="http://www.w3.org/2000/svg">
<path d="M2.69794 5.32199C2.61535 6.20291 2.5574 7.7619 3.07755 8.42549C3.07755 8.42549 2.83269 6.71291 5.02773 4.56423C5.91155 3.69925 6.11584 2.52276 5.80723 1.6404C5.63192 1.14053 5.31171 0.727604 5.03353 0.439278C4.87125 0.269759 4.99586 -0.00987372 5.23203 0.000268414C6.66062 0.064019 8.97592 0.461011 9.95971 2.9299C10.3915 4.01366 10.4233 5.13364 10.2176 6.27245C10.0872 6.99979 9.62357 8.61674 10.6812 8.81523C11.4361 8.95722 11.8012 8.35739 11.965 7.92562C12.033 7.74596 12.2692 7.70105 12.3967 7.84449C13.6717 9.29481 13.7804 11.003 13.5167 12.4736C13.0067 15.3163 10.1278 17.3853 7.2677 17.3853C3.69477 17.3853 0.850623 15.341 0.113145 11.6405C-0.183875 10.1467 -0.0331912 7.19104 2.27052 5.10466C2.44149 4.94818 2.72112 5.08727 2.69794 5.32199Z" fill="url(#paint0_radial_91_1714)"/>
<path d="M8.57305 10.6378C7.25603 8.94261 7.84572 7.00836 8.16882 6.23756C8.21228 6.13614 8.09637 6.04051 8.0051 6.10282C7.43858 6.48822 6.27803 7.39521 5.7376 8.67167C5.00592 10.3973 5.05808 11.242 5.4913 12.2736C5.75209 12.8951 5.44928 13.027 5.29715 13.0502C5.14936 13.0734 5.01317 12.9748 4.9045 12.872C4.59189 12.5718 4.36912 12.1905 4.2612 11.7708C4.23802 11.681 4.12066 11.6564 4.06705 11.7303C3.66136 12.291 3.45128 13.1907 3.44114 13.8268C3.40926 15.7929 5.03345 17.3867 6.99813 17.3867C9.47426 17.3867 11.2781 14.6483 9.85531 12.3591C9.44238 11.6926 9.05408 11.2565 8.57305 10.6378Z" fill="url(#paint1_radial_91_1714)"/>
<defs>
<radialGradient id="paint0_radial_91_1714" cx="0" cy="0" r="1" gradientUnits="userSpaceOnUse" gradientTransform="translate(6.56003 17.4304) rotate(-179.751) scale(10.2273 16.7809)">
<stop offset="0.314" stop-color="#FF9800"/>
<stop offset="0.662" stop-color="#FF6D00"/>
<stop offset="0.972" stop-color="#F44336"/>
</radialGradient>
<radialGradient id="paint1_radial_91_1714" cx="0" cy="0" r="1" gradientUnits="userSpaceOnUse" gradientTransform="translate(7.13431 7.25299) rotate(90.5787) scale(10.7009 8.05321)">
<stop offset="0.214" stop-color="#FFF176"/>
<stop offset="0.328" stop-color="#FFF27D"/>
<stop offset="0.487" stop-color="#FFF48F"/>
<stop offset="0.672" stop-color="#FFF7AD"/>
<stop offset="0.793" stop-color="#FFF9C4"/>
<stop offset="0.822" stop-color="#FFF8BD" stop-opacity="0.804"/>
<stop offset="0.863" stop-color="#FFF6AB" stop-opacity="0.529"/>
<stop offset="0.91" stop-color="#FFF38D" stop-opacity="0.209"/>
<stop offset="0.941" stop-color="#FFF176" stop-opacity="0"/>
</radialGradient>
</defs>
</svg>
