<svg width="303" height="33" viewBox="0 0 303 33" fill="none" xmlns="http://www.w3.org/2000/svg">
<rect width="303" height="33" rx="10" fill="#DEDECE"/>
<rect x="0.5" y="0.5" width="302" height="32" rx="9.5" stroke="#918A89" stroke-opacity="0.5"/>
<path d="M28.25 24.25H34.25C34.9914 24.25 35.6214 24.0828 36.1445 23.7914L28.25 19.0821V24.25ZM37.8725 21.3287C37.958 20.9474 38.0015 20.5435 38.0015 20.1246V18.2496H32.7102L37.871 21.3287M14.1312 10.6596C14.0424 11.0586 13.9983 11.4663 14 11.875V13.75H19.3115L14.1312 10.6596ZM23.75 7.75H17.75C17.0139 7.75 16.388 7.915 15.8671 8.20225L23.75 12.9047V7.75ZM15.8911 23.8097C16.4071 24.0888 17.0247 24.25 17.75 24.25H23.75V19.1215L15.8911 23.8097ZM14 18.25V20.125C14 20.5566 14.0457 20.9725 14.1361 21.3636L19.3557 18.25H14ZM36.1681 8.22063C35.6409 7.92138 35.0022 7.75 34.25 7.75H28.25V12.9441L36.1681 8.22063ZM38 13.75V11.875C38 11.4648 37.9576 11.0691 37.8755 10.6949L32.7545 13.75H38Z" fill="#2E3192"/>
<path d="M42.0015 13.5L47.0015 18.5L52.0015 13.5H42.0015Z" fill="#918A89"/>
<path d="M32.7545 13.75L37.8755 10.6949C37.6407 9.62088 37.0693 8.73175 36.1681 8.22063L28.25 12.9441V7.75H27.5V14.5H38V13.75H32.7545ZM14 17.5V18.25H19.3558L14.1361 21.3636C14.384 22.4343 14.9728 23.3133 15.8911 23.8097L23.75 19.1215V24.25H24.5V17.5H14ZM38 17.5H27.5V24.25H28.25V19.0821L36.1445 23.7917C37.0524 23.2863 37.631 22.402 37.871 21.3295L32.7103 18.25H38V17.5ZM23.75 7.75V12.9047L15.8671 8.20225C14.9559 8.70475 14.3735 9.5875 14.1309 10.6596L19.3115 13.75H14V14.5H24.5V7.75H23.75Z" fill="#E6E7E8"/>
<path d="M27.5 14.5V7.75H24.5V14.5H14V17.5H24.5V24.25H27.5V17.5H38V14.5H27.5Z" fill="#BE1E2D"/>
<path d="M22.2268 13.7499L14.708 9.26148C14.5464 9.50148 14.4166 9.76548 14.3094 10.0467L20.5145 13.7499H22.2256M37.6588 22.0336L31.3539 18.2499H29.6079L37.2253 22.832C37.4019 22.5851 37.5475 22.3175 37.6588 22.0351M36.7696 8.64648L28.2384 13.7499L29.9705 13.751L37.3321 9.34361C37.1679 9.04473 36.9946 8.85198 36.7696 8.64648ZM14.6799 22.703C14.8486 22.9599 15.0516 23.1925 15.2833 23.3945L23.7736 18.2499H22.0625L14.6799 22.703Z" fill="#BE1E2D"/>
<path d="M161.5 12.0833C161.703 12.0833 161.904 12.0941 162.101 12.1163C162.172 12.1241 162.24 12.1458 162.303 12.1801C162.365 12.2144 162.42 12.2606 162.465 12.3161C162.509 12.3717 162.542 12.4354 162.562 12.5037C162.582 12.572 162.588 12.6436 162.58 12.7143C162.572 12.785 162.551 12.8535 162.516 12.9158C162.482 12.9781 162.436 13.0331 162.38 13.0776C162.325 13.122 162.261 13.1551 162.193 13.1749C162.124 13.1948 162.053 13.201 161.982 13.1931C161.089 13.0933 160.188 13.2733 159.402 13.7082C158.616 14.1432 157.985 14.8116 157.595 15.621C157.206 16.4304 157.078 17.3408 157.228 18.2263C157.379 19.1118 157.801 19.9286 158.436 20.5637C159.071 21.1989 159.888 21.6209 160.774 21.7716C161.659 21.9222 162.57 21.7939 163.379 21.4045C164.188 21.0151 164.857 20.3838 165.292 19.598C165.727 18.8121 165.907 17.9105 165.807 17.0178C165.799 16.9471 165.805 16.8756 165.825 16.8073C165.845 16.7389 165.878 16.6752 165.922 16.6197C166.012 16.5075 166.143 16.4356 166.286 16.4198C166.428 16.404 166.572 16.4456 166.684 16.5354C166.739 16.5799 166.786 16.6348 166.82 16.6972C166.854 16.7595 166.876 16.828 166.884 16.8987C166.905 17.0964 166.917 17.2968 166.917 17.4999C166.917 20.4915 164.492 22.9166 161.5 22.9166C158.508 22.9166 156.083 20.4915 156.083 17.4999C156.083 14.5083 158.508 12.0833 161.5 12.0833ZM161.483 15.2666C161.518 15.4057 161.497 15.5532 161.424 15.6768C161.351 15.8004 161.232 15.89 161.093 15.9258C160.711 16.0259 160.379 16.2615 160.158 16.5887C159.937 16.9159 159.842 17.3123 159.892 17.704C159.942 18.0956 160.133 18.4558 160.428 18.7173C160.724 18.9787 161.105 19.1236 161.5 19.1249C161.86 19.1249 162.21 19.0052 162.495 18.7846C162.78 18.564 162.984 18.255 163.074 17.9062C163.112 17.7699 163.203 17.654 163.325 17.5834C163.448 17.5129 163.594 17.4932 163.731 17.5286C163.868 17.564 163.986 17.6517 164.059 17.7729C164.132 17.8941 164.155 18.0391 164.123 18.177C163.957 18.814 163.564 19.3686 163.019 19.7374C162.474 20.1062 161.813 20.2638 161.16 20.1809C160.507 20.098 159.906 19.7801 159.47 19.2867C159.035 18.7934 158.793 18.1582 158.792 17.4999C158.792 16.8995 158.991 16.3161 159.359 15.8413C159.727 15.3666 160.242 15.0275 160.823 14.8772C160.892 14.8594 160.964 14.8554 161.034 14.8654C161.104 14.8753 161.172 14.8991 161.233 14.9352C161.295 14.9714 161.348 15.0193 161.391 15.0761C161.434 15.133 161.465 15.1977 161.483 15.2666ZM165.023 12.152C165.122 12.193 165.206 12.2624 165.266 12.3514C165.325 12.4404 165.357 12.545 165.357 12.652V13.6433H166.348C166.455 13.6433 166.56 13.6751 166.649 13.7346C166.738 13.7941 166.807 13.8787 166.848 13.9776C166.889 14.0766 166.9 14.1855 166.879 14.2906C166.858 14.3956 166.807 14.4921 166.731 14.5679L164.815 16.4816C164.713 16.5832 164.576 16.6403 164.432 16.6403H163.125L162.135 17.631C162.033 17.7326 161.895 17.7897 161.752 17.7897C161.608 17.7897 161.47 17.7326 161.368 17.631C161.267 17.5294 161.21 17.3915 161.21 17.2478C161.21 17.104 161.267 16.9662 161.368 16.8645L162.359 15.8749V14.5673C162.359 14.4237 162.416 14.2859 162.518 14.1844L164.433 12.269C164.508 12.1932 164.605 12.1416 164.71 12.1207C164.815 12.0998 164.924 12.1105 165.023 12.1515M164.274 13.959L163.442 14.7916V15.5575H164.208L165.04 14.726H164.816C164.672 14.726 164.534 14.669 164.433 14.5674C164.331 14.4658 164.274 14.328 164.274 14.1844V13.959Z" fill="#D32A2A"/>
<path d="M171.54 14.5V13.252H174.036V22H172.656V14.5H171.54ZM181.459 14.308L178.123 22H176.743L180.115 14.452H175.675V13.288H181.459V14.308Z" fill="#650C01"/>
<path d="M282.75 15.0209C282.75 17.567 284.167 17.081 284.167 19.1562C283.987 21.2406 282.14 21.7501 278.146 21.7501C274.151 21.7501 272.303 21.2327 272.125 19.1562C272.125 17.081 273.413 17.2145 273.413 14.6684C273.413 12.6796 275.28 10.4167 278.146 10.4167C279.638 10.4167 280.151 10.6102 280.979 11.4793" stroke="black" stroke-opacity="0.89" stroke-width="1.5" stroke-linecap="round" stroke-linejoin="round"/>
<path d="M280.192 23.7739C279.226 24.8468 277.719 24.8596 276.743 23.7739" stroke="black" stroke-width="1.5" stroke-linecap="round" stroke-linejoin="round"/>
<path d="M283.104 15.3751C284.473 15.3751 285.583 14.2149 285.583 12.8636C285.583 11.5122 284.473 10.4167 283.104 10.4167C281.735 10.4167 280.625 11.5769 280.625 12.9282C280.625 14.2796 281.735 15.3751 283.104 15.3751Z" fill="#DE1A0D"/>
<path d="M87.9978 15.0034C87.9367 15.6557 87.8937 16.8102 88.2789 17.3016C88.2789 17.3016 88.0976 16.0334 89.723 14.4423C90.3775 13.8018 90.5288 12.9306 90.3002 12.2772C90.1704 11.9071 89.9333 11.6013 89.7273 11.3878C89.6072 11.2623 89.6994 11.0552 89.8743 11.0627C90.9322 11.1099 92.6466 11.4039 93.3751 13.2321C93.6949 14.0346 93.7185 14.8639 93.5661 15.7072C93.4696 16.2458 93.1262 17.4432 93.9094 17.5902C94.4684 17.6953 94.7388 17.2511 94.86 16.9314C94.9104 16.7984 95.0853 16.7651 95.1797 16.8713C96.1239 17.9453 96.2044 19.2102 96.0091 20.2992C95.6314 22.4042 93.4996 23.9363 91.3817 23.9363C88.736 23.9363 86.6299 22.4225 86.0838 19.6823C85.8638 18.5761 85.9754 16.3875 87.6813 14.8425C87.8079 14.7266 88.015 14.8296 87.9978 15.0034Z" fill="url(#paint0_radial_34_1282)"/>
<path d="M92.3484 18.94C91.3731 17.6847 91.8098 16.2524 92.049 15.6816C92.0812 15.6065 91.9954 15.5357 91.9278 15.5818C91.5083 15.8672 90.6489 16.5388 90.2487 17.484C89.7069 18.7619 89.7455 19.3873 90.0663 20.1512C90.2595 20.6115 90.0352 20.7091 89.9226 20.7263C89.8131 20.7435 89.7123 20.6705 89.6318 20.5943C89.4003 20.3721 89.2354 20.0897 89.1554 19.779C89.1383 19.7124 89.0514 19.6942 89.0117 19.7489C88.7113 20.1641 88.5557 20.8304 88.5482 21.3014C88.5246 22.7573 89.7273 23.9375 91.1821 23.9375C93.0157 23.9375 94.3515 21.9097 93.2979 20.2145C92.9921 19.721 92.7046 19.3981 92.3484 18.94Z" fill="url(#paint1_radial_34_1282)"/>
<path d="M100.571 20.14C101.339 19.476 101.943 18.932 102.383 18.508C102.831 18.076 103.203 17.628 103.499 17.164C103.795 16.7 103.943 16.236 103.943 15.772C103.943 15.292 103.827 14.916 103.595 14.644C103.371 14.372 103.015 14.236 102.527 14.236C102.055 14.236 101.687 14.388 101.423 14.692C101.167 14.988 101.031 15.388 101.015 15.892H99.6954C99.7194 14.98 99.9914 14.284 100.511 13.804C101.039 13.316 101.707 13.072 102.515 13.072C103.387 13.072 104.067 13.312 104.555 13.792C105.051 14.272 105.299 14.912 105.299 15.712C105.299 16.288 105.151 16.844 104.855 17.38C104.567 17.908 104.219 18.384 103.811 18.808C103.411 19.224 102.899 19.708 102.275 20.26L101.735 20.74H105.539V21.88H99.7074V20.884L100.571 20.14Z" fill="#650C01"/>
<defs>
<radialGradient id="paint0_radial_34_1282" cx="0" cy="0" r="1" gradientUnits="userSpaceOnUse" gradientTransform="translate(90.8577 23.9697) rotate(-179.751) scale(7.57328 12.4262)">
<stop offset="0.314" stop-color="#FF9800"/>
<stop offset="0.662" stop-color="#FF6D00"/>
<stop offset="0.972" stop-color="#F44336"/>
</radialGradient>
<radialGradient id="paint1_radial_34_1282" cx="0" cy="0" r="1" gradientUnits="userSpaceOnUse" gradientTransform="translate(91.283 16.4335) rotate(90.5787) scale(7.92398 5.96339)">
<stop offset="0.214" stop-color="#FFF176"/>
<stop offset="0.328" stop-color="#FFF27D"/>
<stop offset="0.487" stop-color="#FFF48F"/>
<stop offset="0.672" stop-color="#FFF7AD"/>
<stop offset="0.793" stop-color="#FFF9C4"/>
<stop offset="0.822" stop-color="#FFF8BD" stop-opacity="0.804"/>
<stop offset="0.863" stop-color="#FFF6AB" stop-opacity="0.529"/>
<stop offset="0.91" stop-color="#FFF38D" stop-opacity="0.209"/>
<stop offset="0.941" stop-color="#FFF176" stop-opacity="0"/>
</radialGradient>
</defs>
</svg>
