<svg width="30" height="30" xmlns="http://www.w3.org/2000/svg" fill="none">
 <defs>
  <radialGradient gradientTransform="matrix(30.737699508666992,0,0,30.737699508666992,14.360986828804016,-8.317040085792542)" gradientUnits="userSpaceOnUse" r="1" cy="0" cx="0" id="paint0_radial_61_1678">
   <stop stop-color="#B7D118" offset="0.508"/>
   <stop stop-color="#B2D019" offset="0.572"/>
   <stop stop-color="#A5CD1D" offset="0.643"/>
   <stop stop-color="#8FC922" offset="0.717"/>
   <stop stop-color="#70C22A" offset="0.793"/>
   <stop stop-color="#48BA34" offset="0.871"/>
   <stop stop-color="#18B040" offset="0.949"/>
   <stop stop-color="#02AB46" offset="0.981"/>
  </radialGradient>
 </defs>
 <g>
  <title>Layer 1</title>
  <path id="svg_1" fill="url(#paint0_radial_61_1678)" d="m21.05069,5.42179c0.196,-0.71672 -0.0283,-2.47758 1.3407,-3.64289c1.3689,-1.16531 3.4985,-1.02094 4.7798,0.20367c1.2813,1.22461 1.4876,3.52688 -0.0284,5.04282c-1.5159,1.51593 -2.2146,0.67031 -3.0602,1.48758c-0.8456,0.81723 -0.6987,1.48753 -0.1753,1.98253c0.5259,0.495 5.7441,5.9478 5.5971,6.2958c-0.1469,0.3481 -3.7022,4.3725 -4.2848,4.6639c-0.5827,0.2913 -1.6036,0.2629 -1.8073,-0.6987c-0.2037,-0.9617 0.147,-2.8849 -1.3123,-3.3825c-1.4566,-0.495 -2.0986,-0.0877 -3.5268,1.4283c-1.4283,1.5159 -2.0703,3.1762 -0.905,4.0218c1.1654,0.8457 2.6246,0.495 3.2072,1.4876c0.5827,0.9926 -0.2913,1.8949 -1.8356,3.3232c-1.5443,1.4283 -2.7405,2.5936 -2.9442,2.4492c-0.2037,-0.1469 -4.6355,-4.8391 -5.0712,-5.3341c-0.4383,-0.495 -1.2839,-0.9333 -2.0986,-0.1753c-0.81725,0.758 -0.96162,3.2355 -4.40084,3.2355c-3.43922,0 -3.85172,-3.7305 -2.62711,-5.2748c1.22461,-1.5443 3.93422,-1.6913 3.99351,-2.7406c0.02578,-0.4821 -1.46179,-1.7814 -2.79726,-3.1762c-1.57008,-1.6423 -3.0293,-3.3825 -3.09117,-3.5862c-0.11602,-0.379 3.2639,-3.7022 3.90586,-4.16881c0.64195,-0.46664 1.36898,-0.17531 1.7196,0.20371c0.35063,0.3789 0.43829,1.5443 0.72961,2.2146c0.29133,0.6703 1.66032,3.5861 4.9552,0.2629c3.2639,-3.2948 0.1753,-4.72308 -0.874,-5.01441c-1.0493,-0.29133 -1.8047,-0.38672 -2.0986,-1.45664c-0.23205,-0.84563 1.0493,-1.83563 2.3899,-3.11954c1.3406,-1.2839 2.127,-1.95421 2.4776,-1.95421c0.3506,0 5.0428,5.04281 5.6564,5.62546c0.6136,0.58266 0.99,0.72961 1.4283,0.61102c0.4357,-0.11344 0.6703,-0.49242 0.7579,-0.81469z"/>
 </g>
</svg>