<svg width="28" height="28" xmlns="http://www.w3.org/2000/svg" fill="none">

 <g>
  <title>Layer 1</title>
  <path id="svg_1" fill="#650C01" d="m12.7273,0l-10.18185,0c-1.4,0 -2.54545,1.14545 -2.54545,2.54545l0,15.27275l3.81818,-3.8182l6.36362,0l0,-1.2727c0,-2.80003 2.2782,-5.09094 5.0909,-5.09094l0,-5.09091c0,-1.4 -1.1454,-2.54545 -2.5454,-2.54545zm0,3.81818l-1.9091,0c-0.4327,1.51455 -1.22184,2.92727 -2.31638,4.14909l-0.02546,0.02546l1.60364,1.59091l-0.47091,1.28546l-1.97273,-1.96001l-3.18181,3.18181l-0.87819,-0.9291l3.22,-3.16907c-0.77808,-0.86104 -1.41394,-1.8406 -1.88363,-2.90182l1.26,0c0.39454,0.76364 0.87818,1.48909 1.46363,2.13818c0.89113,-0.98922 1.57106,-2.14986 1.99819,-3.41091l-7.0891,0l0,-1.27273l4.45455,0l0,-1.27272l1.27273,0l0,1.27272l4.45457,0l0,1.27273zm12.7272,6.36362l-10.1818,0c-1.4,0 -2.5454,1.1455 -2.5454,2.5455l0,8.9091c0,1.4 1.1454,2.5454 2.5454,2.5454l8.9091,0l3.8182,3.8182l0,-15.2727c0,-1.4 -1.1455,-2.5455 -2.5455,-2.5455zm-1.7436,12.7273l-1.0818,-2.8636l-4.5309,0l-1.0691,2.8636l-1.9091,0l4.2891,-11.4546l1.9091,0l4.3018,11.4546l-1.9091,0zm-3.3473,-8.9091l1.5528,4.1364l-3.0928,0l1.54,-4.1364z"/>
 </g>
</svg>