<svg width="21" height="21" xmlns="http://www.w3.org/2000/svg" fill="none">

 <g>
  <title>Layer 1</title>
  <path id="svg_1" fill="#650C01" d="m4.12823,20.9978c-0.3648,0.0006 -0.7279,-0.0473 -1.08,-0.1425c-1.05684,-0.3014 -1.95345,-1.005 -2.49747,-1.9598c-0.54403,-0.9549 -0.69214,-2.0849 -0.41255,-3.1477l1.7475,-6.63003c0.13789,-0.53386 0.38066,-1.03493 0.71412,-1.47401c0.3335,-0.43909 0.7511,-0.80741 1.2284,-1.08349c0.4662,-0.27004 0.9814,-0.44488 1.5156,-0.5144c0.5343,-0.06952 1.0771,-0.03233 1.5969,0.1094c0.5512,0.15174 1.065,0.416 1.5091,0.77614c0.444,0.36013 0.8086,0.80833 1.0709,1.31636l1.95,0c0.2595,-0.51163 0.623,-0.9634 1.0673,-1.32632c0.4443,-0.36293 0.9595,-0.62901 1.5127,-0.78118c0.5198,-0.14173 1.0625,-0.17892 1.5968,-0.1094c0.5343,0.06952 1.0495,0.24436 1.5157,0.5144c0.477,0.27641 0.8944,0.64483 1.2278,1.08387c0.3335,0.43903 0.5764,0.93994 0.7147,1.47363l1.7475,6.64503c0.2837,1.0659 0.1368,2.2006 -0.4091,3.1591c-0.5459,0.9584 -1.4469,1.6637 -2.5084,1.9634c-0.5198,0.1417 -1.0626,0.1789 -1.5969,0.1094c-0.5342,-0.0695 -1.0494,-0.2444 -1.5156,-0.5144c-0.4773,-0.2761 -0.8949,-0.6444 -1.2284,-1.0835c-0.3335,-0.4391 -0.5762,-0.9402 -0.7141,-1.474l-0.135,-0.66l-4.5,0l-0.1725,0.645c-0.1379,0.5338 -0.3807,1.0349 -0.7142,1.474c-0.3335,0.4391 -0.751,0.8074 -1.2283,1.0835c-0.6094,0.3514 -1.2991,0.54 -2.0025,0.5475zm1.74,-13.50003c-0.4526,0.00154 -0.8971,0.12041 -1.29,0.345c-0.3055,0.17828 -0.5727,0.41517 -0.7864,0.69704c-0.2137,0.28187 -0.3695,0.60318 -0.4586,0.94546l-1.74752,6.63003c-0.18286,0.683 -0.09046,1.4106 0.25734,2.0262c0.34779,0.6157 0.92328,1.0703 1.60268,1.2663c0.3281,0.0895 0.6707,0.113 1.008,0.0693c0.3373,-0.0438 0.6626,-0.154 0.957,-0.3243c0.3057,-0.178 0.5732,-0.4148 0.7868,-0.6967c0.2137,-0.2819 0.3695,-0.6034 0.4582,-0.9458l0.465,-1.7625l6.75,0l0.4575,1.7625c0.1815,0.6906 0.6291,1.2811 1.245,1.6425c0.2958,0.1701 0.6224,0.2802 0.9608,0.3239c0.3385,0.0438 0.6823,0.0204 1.0117,-0.0689c0.6802,-0.1941 1.2564,-0.6489 1.6032,-1.2654c0.3469,-0.6165 0.4365,-1.345 0.2493,-2.0271l-1.7475,-6.63003c-0.0863,-0.34248 -0.2402,-0.66423 -0.4528,-0.94631c-0.2125,-0.28209 -0.4793,-0.51879 -0.7847,-0.69619c-0.2959,-0.17012 -0.6224,-0.28022 -0.9609,-0.32397c-0.3384,-0.04376 -0.6822,-0.02032 -1.0116,0.06897c-0.4074,0.11612 -0.7812,0.32776 -1.0903,0.61734c-0.3092,0.28959 -0.5448,0.64875 -0.6872,1.04766l-0.18,0.495l-3.975,0l-0.18,-0.495c-0.1438,-0.39944 -0.3807,-0.75886 -0.6911,-1.04843c-0.3104,-0.28956 -0.6855,-0.50093 -1.0939,-0.61657c-0.2201,-0.05935 -0.4471,-0.0896 -0.675,-0.09z"/>
  <path id="svg_2" fill="#650C01" d="m5.99573,13.4978c-0.2967,0 -0.5867,-0.088 -0.8334,-0.2528c-0.2466,-0.1648 -0.4389,-0.3991 -0.5524,-0.6732c-0.1136,-0.2741 -0.1433,-0.5757 -0.0854,-0.8666c0.0579,-0.291 0.2008,-0.5583 0.4105,-0.7681c0.2098,-0.2097 0.4771,-0.3526 0.7681,-0.4105c0.2909,-0.0579 0.5925,-0.0281 0.8666,0.0854c0.2741,0.1135 0.5084,0.3058 0.6732,0.5524c0.1648,0.2467 0.2528,0.5367 0.2528,0.8334c0,0.3978 -0.158,0.7794 -0.4393,1.0607c-0.2813,0.2813 -0.6629,0.4393 -1.0607,0.4393z"/>
  <path id="svg_3" fill="#650C01" d="m14.99573,11.2478c0.4142,0 0.75,-0.3358 0.75,-0.75c0,-0.4142 -0.3358,-0.75 -0.75,-0.75c-0.4142,0 -0.75,0.3358 -0.75,0.75c0,0.4142 0.3358,0.75 0.75,0.75z"/>
  <path id="svg_4" fill="#650C01" d="m14.99573,14.2478c0.4142,0 0.75,-0.3358 0.75,-0.75c0,-0.4142 -0.3358,-0.75 -0.75,-0.75c-0.4142,0 -0.75,0.3358 -0.75,0.75c0,0.4142 0.3358,0.75 0.75,0.75z"/>
  <path id="svg_5" fill="#650C01" d="m13.49573,12.7478c0.4142,0 0.75,-0.3358 0.75,-0.75c0,-0.4142 -0.3358,-0.75 -0.75,-0.75c-0.4142,0 -0.75,0.3358 -0.75,0.75c0,0.4142 0.3358,0.75 0.75,0.75z"/>
  <path id="svg_6" fill="#650C01" d="m16.49573,12.7478c0.4142,0 0.75,-0.3358 0.75,-0.75c0,-0.4142 -0.3358,-0.75 -0.75,-0.75c-0.4142,0 -0.75,0.3358 -0.75,0.75c0,0.4142 0.3358,0.75 0.75,0.75z"/>
  <path id="svg_7" fill="#650C01" d="m8.80823,5.24782l-1.125,-0.9975c0.3519,-0.39902 0.7847,-0.7186 1.2696,-0.9375c0.4849,-0.2189 1.0109,-0.33211 1.5429,-0.33211c0.532,0 1.058,0.11321 1.5429,0.33211c0.4849,0.2189 0.9177,0.53848 1.2696,0.9375l-1.125,0.9975c-0.2111,-0.23941 -0.4708,-0.43116 -0.7618,-0.5625c-0.2909,-0.13134 -0.6065,-0.19926 -0.9257,-0.19926c-0.3192,0 -0.6348,0.06792 -0.9257,0.19926c-0.291,0.13134 -0.5507,0.32309 -0.7618,0.5625z"/>
  <path id="svg_8" fill="#650C01" d="m14.43323,3.27529c-0.4927,-0.55863 -1.0986,-1.00604 -1.7775,-1.3125c-0.6788,-0.30645 -1.4152,-0.46495 -2.16,-0.46495c-0.7448,0 -1.4812,0.1585 -2.16,0.46495c-0.6789,0.30646 -1.2848,0.75387 -1.7775,1.3125l-1.125,-0.99c0.6334,-0.71824 1.4124,-1.29348 2.2853,-1.68749c0.8728,-0.39402 1.8195,-0.5978 2.7772,-0.5978c0.9577,0 1.9044,0.20378 2.7772,0.5978c0.8729,0.39401 1.6519,0.96925 2.2853,1.68749l-1.125,0.99z"/>
 </g>
</svg>