<svg width="22" height="23" viewBox="0 0 22 23" fill="none" xmlns="http://www.w3.org/2000/svg">
<path d="M3.22222 11.498H1L11 1.49805L21 11.498H18.7778M3.22222 11.498V19.2758C3.22222 19.8652 3.45635 20.4304 3.8731 20.8472C4.28984 21.2639 4.85507 21.498 5.44444 21.498H16.5556C17.1449 21.498 17.7102 21.2639 18.1269 20.8472C18.5437 20.4304 18.7778 19.8652 18.7778 19.2758V11.498" stroke="#918A89" stroke-width="1.5" stroke-linecap="round" stroke-linejoin="round"/>
<path d="M8 21V15.2222C8 14.6329 8.23413 14.0676 8.65087 13.6509C9.06762 13.2341 9.63285 13 10.2222 13H12.4444C13.0338 13 13.599 13.2341 14.0158 13.6509C14.4325 14.0676 14.6667 14.6329 14.6667 15.2222V21" stroke="#918A89" stroke-width="1.5" stroke-linecap="round" stroke-linejoin="round"/>
</svg>
