<svg width="18" height="21" viewBox="0 0 18 21" fill="none" xmlns="http://www.w3.org/2000/svg">
<path d="M8.22034 18.6876C8.2704 18.8802 8.33931 19.0686 8.42709 19.2526C8.51486 19.4373 8.6136 19.6057 8.72331 19.7576H1.66114C1.188 19.7576 0.793028 19.5928 0.476228 19.2633C0.158743 18.933 0 18.5218 0 18.0296V2.22606C0 1.73387 0.158743 1.323 0.476228 0.993446C0.793028 0.66318 1.188 0.498047 1.66114 0.498047H12.7389C13.212 0.498047 13.607 0.66318 13.9238 0.993446C14.2413 1.323 14.4 1.73387 14.4 2.22606V9.84429C14.2491 9.82218 14.0777 9.81112 13.8857 9.81112C13.6937 9.81112 13.5223 9.82182 13.3714 9.84322V2.22713C13.3714 2.06307 13.3056 1.9122 13.1739 1.77453C13.0416 1.63686 12.8966 1.56802 12.7389 1.56802H7.71429V8.19332L5.65714 6.91791L3.6 8.19332V1.56802H1.66114C1.50343 1.56802 1.3584 1.6365 1.22606 1.77346C1.0944 1.91113 1.02857 2.062 1.02857 2.22606V18.0296C1.02857 18.1937 1.0944 18.3445 1.22606 18.4822C1.3584 18.6192 1.50343 18.6876 1.66114 18.6876H8.22034ZM13.8857 20.498C12.7399 20.498 11.7675 20.0829 10.9687 19.2526C10.1698 18.4223 9.77074 17.4108 9.77143 16.2181C9.77143 15.0269 10.1705 14.0158 10.9687 13.1848C11.7669 12.3537 12.7392 11.9382 13.8857 11.9382C15.0315 11.9382 16.0039 12.3537 16.8027 13.1848C17.6016 14.0158 18.0007 15.0269 18 16.2181C18 17.4101 17.6009 18.4216 16.8027 19.2526C16.0039 20.0829 15.0315 20.498 13.8857 20.498ZM12.996 18.235L15.804 16.1775L12.996 14.1199V18.235ZM8.22034 1.56802H1.02857H13.3714H7.71429H8.22034Z" fill="#918A89"/>
</svg>
